<?xml version="1.0"?>
<svg xmlns="http://www.w3.org/2000/svg" height="512px" viewBox="0 0 496 496.01039" width="512px"><path d="m304.003906 184.011719h-16c0 22.054687-17.941406 40-40 40-22.054687 0-40-17.945313-40-40h-16c0 30.871093 25.121094 56 56 56 30.882813 0 56-25.128907 56-56zm0 0" fill="#b23b38"/><path d="m276.003906 168.011719c6.617188 0 12-5.386719 12-12 0-6.617188-5.382812-12-12-12-6.613281 0-12 5.382812-12 12 0 6.613281 5.386719 12 12 12zm0-16c2.210938 0 4 1.796875 4 4 0 2.199219-1.789062 4-4 4-2.207031 0-4-1.800781-4-4 0-2.203125 1.792969-4 4-4zm0 0" fill="#b23b38"/><path d="m220.003906 168.011719c6.617188 0 12-5.386719 12-12 0-6.617188-5.382812-12-12-12-6.613281 0-12 5.382812-12 12 0 6.613281 5.386719 12 12 12zm0-16c2.210938 0 4 1.796875 4 4 0 2.199219-1.789062 4-4 4-2.207031 0-4-1.800781-4-4 0-2.203125 1.792969-4 4-4zm0 0" fill="#b23b38"/><path d="m488.003906 400.011719h-8v-88c0-4.425781-3.582031-8-8-8h-80.222656c-21.488281-28.511719-55.289062-47.160157-93.488281-47.890625 11.769531-8.230469 21.410156-19.253906 28-32.109375h17.710937c22.058594 0 40-17.945313 40-40v-48c0-19.441407-13.949218-35.648438-32.367187-39.234375-3.734375-53.96875-48.726563-96.7656252-103.632813-96.7656252-54.902344 0-99.894531 42.7968752-103.628906 96.7656252-18.417969 3.585937-32.371094 19.792968-32.371094 39.234375v48c0 22.054687 17.945313 40 40 40h17.714844c6.597656 12.855469 16.230469 23.886719 28 32.109375-65.105469 1.242187-117.714844 54.488281-117.714844 119.890625v24h-8c-4.414062 0-8 3.574219-8 8v24h-56c-4.414062 0-7.99999975 3.574219-7.99999975 8v48c0 4.421875 3.58593775 8 7.99999975 8h480c4.417969 0 8-3.578125 8-8v-80c0-4.425781-3.582031-8-8-8zm-8 16v16h-16v-16zm-16-96v80h-8c-4.414062 0-8 3.574219-8 8v24h-16v-24c0-4.425781-3.582031-8-8-8h-8v-24c0-20.226563-5.078125-39.265625-13.949218-56zm-112 32v8c0 4.414062-3.589844 8-8 8-4.40625 0-8-3.585938-8-8v-8zm0 30.527343c9.289063-3.3125 16-12.113281 16-22.527343v-16c0-4.425781-3.582031-8-8-8h-8v-16h31.496094c10.394531 16.183593 16.503906 35.375 16.503906 56v24h-48zm64 33.472657v16h-128v-16zm-145.078125-144-22.921875 27.503906-22.917968-27.503906zm-86.921875-144h-7.527344c4-35.945313 34.535157-64 71.527344-64 2.519532 0 5.015625.132812 7.472656.390625-4.175781 35.761718-34.617187 63.609375-71.472656 63.609375zm87.105469-60.128907c25.960937 8.832032 45.304687 32.039063 48.421875 60.128907h-7.527344c-20.984375 0-40.328125-8.9375-54.007812-24.546875 6.785156-10.542969 11.351562-22.613282 13.113281-35.582032zm96.894531 68.128907v48c0 13.230469-10.765625 24-24 24h-11.40625c2.167969-7.640625 3.40625-15.671875 3.40625-24v-48c0-8.328125-1.238281-16.363281-3.40625-24h11.40625c13.234375 0 24 10.765625 24 24zm-120-120c45.824219 0 83.539063 35.214843 87.59375 80h-9.3125c-14.59375-28.449219-44.167968-48-78.28125-48-34.109375 0-63.6875 19.550781-78.285156 48h-9.3125c4.0625-44.785157 41.773438-80 87.597656-80zm-96 192c-13.230468 0-24-10.769531-24-24v-48c0-13.234375 10.769532-24 24-24h11.410156c-2.167968 7.636719-3.410156 15.671875-3.410156 24v48c0 8.328125 1.242188 16.359375 3.410156 24zm24-24v-40h8c25.183594 0 47.875-10.6875 63.929688-27.707031 16.574218 17.707031 39.421875 27.707031 64.070312 27.707031h8v40c0 39.703125-32.300781 72-72 72-39.695312 0-72-32.296875-72-72zm-80 192c0-57.34375 46.65625-104 104-104h4.25l37.605469 45.125c1.523437 1.816406 3.769531 2.875 6.144531 2.875 2.378906 0 4.625-1.058594 6.144532-2.875l37.609374-45.125h4.246094c29.402344 0 55.9375 12.320312 74.875 32h-26.875c-4.414062 0-8 3.574219-8 8v24h-8c-4.414062 0-8 3.574219-8 8v16c0 10.414062 6.714844 19.214843 16 22.527343v17.472657h-56c-4.414062 0-8 3.574219-8 8v24h-48v-24c0-4.425781-3.582031-8-8-8h-56v-48h-16v48h-48zm-16 40h128v16h-128zm400 64h-464v-32h464zm0 0" fill="#b23b38"/><path d="m32.003906 112.011719c17.945313 0 32-10.539063 32-24v-60.6875l18.34375 18.34375 11.3125-11.3125-32-32c-2.296875-2.2968752-5.734375-2.992188-8.71875-1.738281-2.984375 1.234374-4.9375 4.160156-4.9375 7.394531v59.230469c-4.695312-2-10.09375-3.230469-16-3.230469-17.941406 0-31.99999975 10.535156-31.99999975 24 0 13.460937 14.05859375 24 31.99999975 24zm0-32c9.769532 0 16 4.734375 16 8 0 3.261719-6.230468 8-16 8-9.765625 0-16-4.738281-16-8 0-3.265625 6.234375-8 16-8zm0 0" fill="#b23b38"/><path d="m432.003906 176.011719c17.945313 0 32-10.539063 32-24v-60.6875l18.34375 18.34375 11.3125-11.3125-32-32c-2.285156-2.296875-5.734375-2.992188-8.71875-1.738281-2.984375 1.234374-4.9375 4.160156-4.9375 7.394531v59.230469c-4.695312-2-10.09375-3.230469-16-3.230469-17.941406 0-32 10.535156-32 24 0 13.460937 14.058594 24 32 24zm0-32c9.769532 0 16 4.734375 16 8 0 3.261719-6.230468 8-16 8-9.765625 0-16-4.738281-16-8 0-3.265625 6.234375-8 16-8zm0 0" fill="#b23b38"/><path d="m32.003906 272.011719c17.945313 0 32-10.539063 32-24v-60.6875l18.34375 18.34375 11.3125-11.3125-32-32c-2.296875-2.289063-5.734375-2.992188-8.71875-1.738281-2.984375 1.234374-4.9375 4.160156-4.9375 7.394531v59.230469c-4.695312-2-10.09375-3.230469-16-3.230469-17.941406 0-31.99999975 10.535156-31.99999975 24 0 13.460937 14.05859375 24 31.99999975 24zm0-32c9.769532 0 16 4.734375 16 8 0 3.261719-6.230468 8-16 8-9.765625 0-16-4.738281-16-8 0-3.265625 6.234375-8 16-8zm0 0" fill="#b23b38"/></svg>
