<?xml version="1.0" encoding="iso-8859-1"?>
<!-- Generator: Adobe Illustrator 19.0.0, SVG Export Plug-In . SVG Version: 6.00 Build 0)  -->
<svg xmlns="http://www.w3.org/2000/svg" xmlns:xlink="http://www.w3.org/1999/xlink" version="1.1" id="Capa_1" x="0px" y="0px" viewBox="0 0 512.002 512.002" style="enable-background:new 0 0 512.002 512.002;" xml:space="preserve" width="512px" height="512px">
<g>
	<g>
		<path d="M278.5,75c0-5.105-1.757-10.018-4.868-13.95c1.369-4.824,1.112-10.035-0.841-14.751    c-1.954-4.717-5.457-8.583-9.835-11.025c-0.582-4.98-2.812-9.696-6.422-13.307c-3.61-3.609-8.326-5.841-13.306-6.422    c-2.443-4.378-6.309-7.882-11.026-9.836c-4.717-1.954-9.928-2.211-14.751-0.842C213.518,1.757,208.606,0,203.501,0    c-5.105,0-10.017,1.757-13.95,4.867c-4.824-1.367-10.035-1.111-14.752,0.842c-4.717,1.954-8.582,5.458-11.024,9.836    c-4.98,0.581-9.696,2.812-13.306,6.422c-3.61,3.609-5.841,8.325-6.423,13.307c-4.378,2.442-7.882,6.309-9.836,11.025    c-1.953,4.717-2.209,9.927-0.841,14.751c-3.11,3.932-4.868,8.845-4.868,13.95s1.757,10.018,4.868,13.95    c-1.369,4.823-1.113,10.034,0.841,14.751c1.954,4.716,5.458,8.582,9.836,11.025c0.582,4.98,2.812,9.696,6.422,13.307    c4.279,4.279,10.017,6.596,15.94,6.585C175.913,144.117,189.033,150,203.5,150c14.464,0,27.581-5.88,37.086-15.375    c0.017,0,0.035,0.001,0.052,0.001c5.908,0,11.627-2.325,15.896-6.594c3.61-3.61,5.84-8.326,6.422-13.306    c4.379-2.443,7.882-6.309,9.835-11.025c1.954-4.716,2.21-9.927,0.841-14.751C276.742,85.017,278.5,80.105,278.5,75z M203.501,135    c-20.678,0-37.5-16.822-37.5-37.5s16.822-37.5,37.5-37.5c20.678,0,37.5,16.822,37.5,37.5S224.179,135,203.501,135z     M260.354,81.089c-3.204,2.301-4.077,6.691-1.998,10.044c1.296,2.09,1.505,4.579,0.574,6.828c-0.632,1.527-1.722,2.75-3.102,3.56    c0.101-1.329,0.169-2.667,0.169-4.021c0-28.948-23.551-52.5-52.5-52.5c-28.949,0-52.5,23.552-52.5,52.5    c0,1.354,0.068,2.692,0.169,4.021c-1.38-0.81-2.469-2.033-3.102-3.56c-0.932-2.249-0.722-4.738,0.574-6.828    c2.08-3.353,1.206-7.743-1.998-10.045c-1.998-1.435-3.144-3.653-3.144-6.088s1.15-4.653,3.147-6.088    c3.205-2.301,4.079-6.692,1.999-10.045c-1.296-2.09-1.506-4.579-0.574-6.828s2.839-3.861,5.233-4.422    c3.841-0.9,6.329-4.623,5.69-8.517c-0.398-2.427,0.361-4.806,2.083-6.527c1.722-1.721,4.102-2.479,6.527-2.082    c3.894,0.642,7.616-1.85,8.516-5.69c0.561-2.395,2.173-4.302,4.421-5.233c2.249-0.934,4.738-0.724,6.828,0.573    c3.353,2.079,7.742,1.207,10.045-1.998c1.434-1.997,3.653-3.143,6.088-3.143s4.654,1.146,6.089,3.144    c2.303,3.204,6.693,4.077,10.045,1.997c2.09-1.295,4.578-1.505,6.826-0.574c2.25,0.933,3.862,2.84,4.423,5.234    c0.9,3.842,4.623,6.33,8.516,5.69c2.426-0.398,4.807,0.36,6.528,2.083c1.721,1.721,2.48,4.1,2.082,6.526    c-0.639,3.894,1.849,7.616,5.69,8.517c2.395,0.561,4.302,2.172,5.233,4.422c0.932,2.249,0.723,4.738-0.574,6.828    c-2.08,3.354-1.206,7.744,1.999,10.045c1.997,1.435,3.142,3.653,3.142,6.088S262.352,79.653,260.354,81.089z" fill="#b23b38"/>
	</g>
</g>
<g>
	<g>
		<path d="M188.501,265c-4.142,0-7.5,3.357-7.5,7.5v10c0,4.143,3.358,7.5,7.5,7.5c4.142,0,7.5-3.357,7.5-7.5v-10    C196.001,268.357,192.643,265,188.501,265z" fill="#b23b38"/>
	</g>
</g>
<g>
	<g>
		<path d="M158.501,265c-4.142,0-7.5,3.357-7.5,7.5v10c0,4.143,3.358,7.5,7.5,7.5c4.142,0,7.5-3.357,7.5-7.5v-10    C166.001,268.357,162.643,265,158.501,265z" fill="#b23b38"/>
	</g>
</g>
<g>
	<g>
		<path d="M348.501,255h-92.5v-55.286c50.271-3.842,90-45.976,90-97.214c0-4.143-3.358-7.5-7.5-7.5c-4.142,0-7.5,3.357-7.5,7.5    c0,43.343-33.605,78.961-76.125,82.229c-3.362-11.39-13.91-19.729-26.375-19.729h-50c-15.164,0-27.5,12.337-27.5,27.5    c0,4.143,3.358,7.5,7.5,7.5c4.142,0,7.5-3.357,7.5-7.5c0-6.893,5.607-12.5,12.5-12.5h50c6.893,0,12.5,5.607,12.5,12.5V255h-16.04    c-3.272-11.53-13.896-20-26.46-20h-17.579c-11.188-13.775-27.4-22.601-44.921-24.576V202.5c0-4.143-3.358-7.5-7.5-7.5    c-4.142,0-7.5,3.357-7.5,7.5v7.927c-33.702,3.744-60,32.39-60,67.073c0,37.22,30.28,67.5,67.5,67.5c2.519,0,5.023-0.144,7.5-0.424    V367.5c0,4.143,3.358,7.5,7.5,7.5h22.5v114.095l-24.872,8.29c-3.93,1.31-6.053,5.558-4.744,9.487    c1.048,3.143,3.974,5.13,7.114,5.13c0.786,0,1.586-0.125,2.373-0.387l30-10c3.062-1.021,5.128-3.887,5.128-7.115V375h45v119.5    c0,3.229,2.066,6.095,5.128,7.115l30,10c0.787,0.262,1.586,0.387,2.373,0.387c3.14,0,6.066-1.987,7.114-5.13    c1.31-3.93-0.814-8.178-4.744-9.487l-24.872-8.29V375h22.5c4.142,0,7.5-3.357,7.5-7.5v-65.335c0-0.721-0.021-1.443-0.044-2.165    h77.546c4.142,0,7.5-3.357,7.5-7.5v-30C356.001,258.357,352.643,255,348.501,255z M128.501,330c-28.949,0-52.5-23.552-52.5-52.5    c0-26.401,19.593-48.304,45-51.956v6.956c0,4.143,3.358,7.5,7.5,7.5c4.142,0,7.5-3.357,7.5-7.5v-6.934    c13.979,2.037,26.752,9.671,35.132,21.315c1.409,1.958,3.675,3.119,6.087,3.119h21.281c6.893,0,12.5,5.607,12.5,12.5v30    c0,6.893-5.607,12.5-12.5,12.5H177.22c-2.413,0-4.678,1.161-6.087,3.119C161.272,321.82,145.335,330,128.501,330z M256.001,360    h-105v-18.895c11.606-4.122,22.018-11.375,29.921-21.105h17.579c12.565,0,23.188-8.47,26.46-20h30.995    c0.029,0.721,0.045,1.443,0.045,2.165V360z M296.001,285h-70v-15h70V285z M341.001,285h-30v-15h30V285z" fill="#b23b38"/>
	</g>
</g>
<g>
	<g>
		<path d="M448.804,499.196l-57.803-57.803V240h2.5c4.142,0,7.5-3.357,7.5-7.5s-3.358-7.5-7.5-7.5h-2.5v-56.29    c8.729-3.096,15-11.433,15-21.21v-30c0-12.406-10.093-22.5-22.5-22.5c-12.407,0-22.5,10.094-22.5,22.5v30    c0,9.777,6.271,18.114,15,21.21V225h-2.5c-4.142,0-7.5,3.357-7.5,7.5s3.358,7.5,7.5,7.5h2.5v201.393l-57.803,57.803    c-2.929,2.93-2.929,7.678,0,10.607c2.929,2.928,7.678,2.928,10.606,0l47.197-47.197V504.5c0,4.143,3.358,7.5,7.5,7.5    c4.142,0,7.5-3.357,7.5-7.5v-41.894l47.197,47.197c1.464,1.464,3.384,2.196,5.303,2.196s3.839-0.732,5.303-2.196    C451.733,506.874,451.733,502.126,448.804,499.196z M383.501,155c-4.136,0-7.5-3.364-7.5-7.5v-30c0-4.136,3.364-7.5,7.5-7.5    s7.5,3.364,7.5,7.5v30C391.001,151.636,387.637,155,383.501,155z" fill="#b23b38"/>
	</g>
</g>
<g>
</g>
<g>
</g>
<g>
</g>
<g>
</g>
<g>
</g>
<g>
</g>
<g>
</g>
<g>
</g>
<g>
</g>
<g>
</g>
<g>
</g>
<g>
</g>
<g>
</g>
<g>
</g>
<g>
</g>
</svg>
