<?xml version="1.0" encoding="iso-8859-1"?>
<!-- Generator: Adobe Illustrator 19.0.0, SVG Export Plug-In . SVG Version: 6.00 Build 0)  -->
<svg version="1.1" id="Capa_1" xmlns="http://www.w3.org/2000/svg" xmlns:xlink="http://www.w3.org/1999/xlink" x="0px" y="0px"
	 viewBox="0 0 511.999 511.999" style="enable-background:new 0 0 511.999 511.999;" xml:space="preserve">
<path style="fill:#85453D;" d="M346,207.499h-15c0-4.136-3.364-7.5-7.5-7.5H204.816v-15H323.5
	C335.906,184.999,346,195.093,346,207.499z"/>
<path style="fill:#A45E43;" d="M158.5,184.999c-45.491,0-82.5-37.01-82.5-82.5c0-4.143-3.358-7.5-7.5-7.5s-7.5,3.357-7.5,7.5
	c0,53.762,43.738,97.5,97.5,97.5h46.316v-15H158.5z"/>
<rect x="301" y="142.5" style="fill:#999999;" width="15" height="80"/>
<path style="fill:#A45E43;" d="M167.315,292.499v196.592l-24.87,8.29c-3.93,1.31-6.053,5.557-4.744,9.487
	c1.31,3.93,5.559,6.054,9.487,4.744l29.998-10c3.063-1.021,5.128-3.887,5.128-7.115V292.499H167.315z"/>
<path style="fill:#85453D;" d="M242.315,292.499v196.592l24.87,8.29c3.93,1.31,6.053,5.557,4.744,9.487
	c-1.31,3.93-5.559,6.054-9.487,4.744l-29.998-10c-3.063-1.021-5.128-3.887-5.128-7.115V292.499H242.315z"/>
<path style="fill:#353535;" d="M308.5,117.499c-8.284,0-15,6.716-15,15v15c0,8.284,6.716,15,15,15s15-6.716,15-15v-15
	C323.5,124.215,316.784,117.499,308.5,117.499z"/>
<path style="fill:#4F4F4F;" d="M373,498.498l-57-42.75V252.499c0-4.143-3.358-7.5-7.5-7.5s-7.5,3.357-7.5,7.5v252
	c0,4.143,3.358,7.5,7.5,7.5s7.5-3.357,7.5-7.5v-30.001l48,36c3.313,2.485,8.015,1.814,10.5-1.5
	C376.985,505.685,376.313,500.984,373,498.498z"/>
<g>
	<path style="fill:#353535;" d="M316,259.999h-15c-4.142,0-7.5-3.357-7.5-7.5s3.358-7.5,7.5-7.5h15c4.142,0,7.5,3.357,7.5,7.5
		S320.142,259.999,316,259.999z"/>
	<path style="fill:#353535;" d="M316,359.999h-15c-4.142,0-7.5-3.357-7.5-7.5s3.358-7.5,7.5-7.5h15c4.142,0,7.5,3.357,7.5,7.5
		S320.142,359.999,316,359.999z"/>
</g>
<g>
	<path style="fill:#B3B3B3;" d="M421,37.366c0-0.024,0-29.867,0-29.867c0-2.411-1.159-4.675-3.115-6.084s-4.47-1.792-6.757-1.031
		l-45,15c-3.063,1.021-5.128,3.887-5.128,7.115v30.133c0,0.024,0,39.462,0,39.462l-9.872,3.29c-3.93,1.31-6.053,5.558-4.744,9.487
		c1.048,3.143,3.974,5.13,7.114,5.13c0.786,0,1.586-0.125,2.373-0.387l15-5c3.063-1.021,5.128-3.887,5.128-7.115V57.905l30-10
		v29.189l-9.872,3.29c-3.93,1.31-6.053,5.558-4.744,9.487c1.31,3.929,5.556,6.049,9.487,4.743l15-5
		c3.063-1.021,5.128-3.887,5.128-7.115V37.366H421z M376,42.093V27.904l30-10v14.189L376,42.093z"/>
	<path style="fill:#B3B3B3;" d="M443.5,44.999c-4.142,0-7.5,3.357-7.5,7.5v54.595l-9.872,3.29c-3.93,1.31-6.053,5.558-4.744,9.487
		c1.048,3.143,3.974,5.13,7.114,5.13c0.786,0,1.586-0.125,2.373-0.387l15-5c3.063-1.021,5.128-3.887,5.128-7.115v-60
		C451,48.357,447.642,44.999,443.5,44.999z"/>
</g>
<path style="fill:#85453D;" d="M229.815,172.499h-30v55.031l50-13.333v-21.698C249.815,181.454,240.86,172.499,229.815,172.499z"/>
<path style="fill:#A45E43;" d="M199.815,172.499h-20c-11.046,0-20,8.954-20,20v21.698l45,20l15-6.667v-35.031
	C219.815,181.454,210.86,172.499,199.815,172.499z"/>
<path style="fill:#FFA754;" d="M249.815,262.499l-0.001-48.302c-4.976-7.072-13.196-11.698-22.5-11.698
	c-2.602,0-5.115,0.374-7.5,1.049l-20,73.951l35.001,75h30v-50.335C264.815,286.953,259.144,273.074,249.815,262.499z"/>
<path style="fill:#FFCB63;" d="M219.816,262.5l-0.001-58.951c-6.144,1.741-11.416,5.554-15,10.648
	c-4.976-7.072-13.195-11.698-22.5-11.698c-9.304,0-17.524,4.625-22.5,11.698V262.5c-9.329,10.576-14.999,24.454-14.999,39.665V352.5
	h90v-50.335C234.815,286.954,229.144,273.075,219.816,262.5z"/>
<path style="fill:#85453D;" d="M323.5,229.999h-15c-4.142,0-7.5-3.357-7.5-7.5s3.358-7.5,7.5-7.5h15c4.136,0,7.5-3.364,7.5-7.5
	c0-4.143,3.358-7.5,7.5-7.5s7.5,3.357,7.5,7.5C346,219.905,335.906,229.999,323.5,229.999z"/>
<path style="fill:#40211D;" d="M270,75c0-9.429-4.354-17.838-11.157-23.338c0.922-8.699-1.946-17.724-8.613-24.392
	c-6.668-6.668-15.692-9.535-24.392-8.613C220.338,11.854,211.929,7.5,202.5,7.5s-17.838,4.354-23.338,11.157
	c-8.699-0.922-17.724,1.946-24.392,8.613s-9.535,15.692-8.613,24.392C139.354,57.161,135,65.57,135,75s4.354,17.838,11.157,23.338
	c-0.922,8.699,1.946,17.724,8.613,24.392c11.716,11.716,30.711,11.716,42.427,0h10.606c11.716,11.716,30.711,11.716,42.427,0
	c6.668-6.668,9.535-15.692,8.613-24.392C265.646,92.838,270,84.429,270,75z"/>
<path style="fill:#85453D;" d="M202.5,52.5v90c24.853,0,45-20.147,45-45S227.352,52.5,202.5,52.5z"/>
<path style="fill:#A45E43;" d="M217.5,97.5c0-24.853-6.716-45-15-45c-24.853,0-45,20.147-45,45s20.147,45,45,45
	C210.784,142.5,217.5,122.352,217.5,97.5z"/>
<g>
</g>
<g>
</g>
<g>
</g>
<g>
</g>
<g>
</g>
<g>
</g>
<g>
</g>
<g>
</g>
<g>
</g>
<g>
</g>
<g>
</g>
<g>
</g>
<g>
</g>
<g>
</g>
<g>
</g>
</svg>
