<?xml version="1.0" encoding="UTF-8"?>
<svg width="512px" height="512px" viewBox="0 0 512 512" version="1.1" xmlns="http://www.w3.org/2000/svg" xmlns:xlink="http://www.w3.org/1999/xlink">
    <!-- Generator: Sketch 51.3 (57544) - http://www.bohemiancoding.com/sketch -->
    <title>Untitled</title>
    <desc>Created with Sketch.</desc>
    <defs></defs>
    <g id="Page-1" stroke="none" stroke-width="1" fill="none" fill-rule="evenodd">
        <g id="blog" fill="#B23B38" fill-rule="nonzero">
            <path d="M488.499,376.736 L399.826,376.736 L399.826,326.47 C399.826,322.32 396.461,318.955 392.311,318.955 C388.161,318.955 384.796,322.32 384.796,326.47 L384.796,456.391 C384.796,472.381 391.58,486.816 402.42,496.97 L55.654,496.97 C33.278,496.97 15.075,478.766 15.075,456.391 L15.075,18.911 L60.709,38.469 C62.49,39.232 64.495,39.279 66.308,38.598 L127.795,15.541 L189.281,38.598 C190.981,39.236 192.857,39.236 194.558,38.598 L256.045,15.541 L317.532,38.598 C319.142,39.203 320.914,39.235 322.547,38.691 L384.797,17.941 L384.797,120.735 C384.797,124.885 388.162,128.25 392.312,128.25 C396.462,128.25 399.827,124.885 399.827,120.735 L399.827,7.514 C399.827,2.473 394.726,-1.209 389.936,0.385 L320.319,23.591 L258.683,0.479 C256.983,-0.159 255.107,-0.159 253.406,0.479 L191.92,23.536 L130.433,0.479 C128.733,-0.159 126.857,-0.159 125.156,0.479 L63.856,23.466 L10.519,0.607 C5.642,-1.483 0.045,2.218 0.045,7.514 L0.045,456.391 C0.045,487.054 24.991,512 55.654,512 L440.405,512 C471.068,512 496.014,487.054 496.014,456.391 L496.014,384.25 C496.014,380.1 492.649,376.736 488.499,376.736 Z M480.984,456.391 C480.984,478.767 462.78,496.97 440.405,496.97 C418.029,496.97 399.826,478.766 399.826,456.391 L399.826,391.765 L480.985,391.765 L480.985,456.391 L480.984,456.391 Z" id="Shape"></path>
            <path d="M175.888,408.798 L71.685,408.798 C67.535,408.798 64.17,412.163 64.17,416.313 C64.17,420.463 67.534,423.828 71.685,423.828 L175.889,423.828 C180.039,423.828 183.404,420.463 183.404,416.313 C183.404,412.163 180.038,408.798 175.888,408.798 Z" id="Shape"></path>
            <path d="M111.763,368.72 L71.685,368.72 C67.535,368.72 64.17,372.085 64.17,376.235 C64.17,380.385 67.534,383.75 71.685,383.75 L111.763,383.75 C115.913,383.75 119.278,380.385 119.278,376.235 C119.278,372.084 115.913,368.72 111.763,368.72 Z" id="Shape"></path>
            <path d="M191.92,368.72 L135.81,368.72 C131.66,368.72 128.295,372.085 128.295,376.235 C128.295,380.385 131.66,383.75 135.81,383.75 L191.92,383.75 C196.07,383.75 199.435,380.385 199.435,376.235 C199.434,372.084 196.07,368.72 191.92,368.72 Z" id="Shape"></path>
            <path d="M151.841,328.642 L71.685,328.642 C67.535,328.642 64.17,332.007 64.17,336.157 C64.17,340.307 67.534,343.672 71.685,343.672 L151.842,343.672 C155.992,343.672 159.357,340.307 159.357,336.157 C159.357,332.007 155.991,328.642 151.841,328.642 Z" id="Shape"></path>
            <path d="M191.92,328.642 L175.889,328.642 C171.739,328.642 168.374,332.007 168.374,336.157 C168.374,340.307 171.739,343.672 175.889,343.672 L191.92,343.672 C196.07,343.672 199.435,340.307 199.435,336.157 C199.435,332.007 196.07,328.642 191.92,328.642 Z" id="Shape"></path>
            <path d="M505.147,155.942 L459.804,110.598 C450.624,101.418 435.686,101.418 426.505,110.598 L222.46,314.644 C221.323,315.781 220.563,317.304 220.334,318.895 L209.353,395.766 L194.12,411 C191.185,413.935 191.185,418.693 194.12,421.627 C197.015,424.522 201.852,424.522 204.747,421.627 L219.98,406.394 L296.851,395.413 C298.442,395.186 299.965,394.424 301.102,393.287 L505.146,189.243 C514.224,180.166 514.224,165.019 505.147,155.942 Z M225.295,390.452 L233.088,335.898 L279.848,382.658 L225.295,390.452 Z M295.79,377.346 L272.409,353.965 L376.167,250.208 C379.102,247.273 379.102,242.515 376.167,239.581 C373.233,236.646 368.475,236.646 365.54,239.581 L261.781,343.338 L238.401,319.958 L397.811,160.548 L421.192,183.929 L389.252,215.869 C386.317,218.804 386.317,223.562 389.252,226.496 C392.187,229.431 396.945,229.431 399.879,226.496 L431.819,194.556 L455.2,217.937 L295.79,377.346 Z M465.827,207.309 L408.439,149.921 L414.815,143.545 L472.203,200.933 L465.827,207.309 Z M494.521,178.615 L482.831,190.305 L425.443,132.917 L437.133,121.227 C440.453,117.907 445.857,117.907 449.178,121.227 L494.521,166.571 C497.803,169.852 497.803,175.332 494.521,178.615 Z" id="Shape"></path>
        </g>
        <g id="g-clef-musical-note" transform="translate(43.000000, 53.000000)" fill="#B23B38" fill-rule="nonzero">
            <path d="M4.41304271,165.890372 C19.2959734,187.985489 80.3343104,204.153775 117.764252,192.641635 C131.672796,212.134002 135.434214,256.928283 61.8711244,243.612509 C61.6705154,243.673279 58.6828753,242.947085 55.7474345,241.567014 C72.2526364,243.822163 88.6595809,236.350576 88.6595809,226.012499 C88.6595809,217.21614 76.5759635,210.047183 61.7646788,210.047183 C23.3593278,210.047183 27.5690447,245.312227 68.2107759,248.500186 C85.0332674,249.812195 97.880427,248.463116 107.522961,245.368135 C142.149495,234.219396 130.664634,209.864268 123.183763,191.643802 C128.827425,189.305399 155.812396,182.111527 161.164356,165.895234 C167.567465,137.353708 136.250979,126.095583 98.7985199,128.353164 L88.1754583,99.7095447 C100.177194,93.6234974 112.087838,87.1242186 120.759056,79.238184 C147.185189,55.2081719 141.890546,24.3179113 112.207589,1.6673627 C109.275219,-0.564694412 104.118751,-0.54524823 101.129063,1.66250116 C68.1207066,26.0170214 67.3295295,45.55375 71.1196054,60.7953031 C72.7439236,66.702081 75.1757951,72.5796896 76.4234598,78.5034829 C66.8228896,83.4956825 56.3768962,88.8409519 46.4385661,94.7999914 C16.5294126,113.276295 -10.982669,139.255787 4.41304271,165.890372 Z M120.799997,187.652474 C114.921951,171.811127 109.654943,157.639722 103.880272,142.061507 C151.763371,141.696283 156.759147,175.072009 120.799997,187.652474 Z M90.4230971,28.3833787 C95.825209,21.7753229 102.445304,14.1299348 113.331408,15.7646295 C128.955364,18.1072868 132.498773,32.8857776 124.368994,45.9049967 C116.780654,58.0667607 101.489341,65.3457098 98.2253515,67.7728364 C92.0975676,72.3341816 85.8316091,75.8752098 80.1592893,76.8523805 C76.9454524,66.6759502 78.5185949,42.9096769 90.4230971,28.3833787 Z M83.2758923,102.15551 L93.0156605,128.350733 C53.315563,132.50067 33.7019462,164.371139 71.6559272,175.127917 C75.9639016,176.345734 76.3988954,175.683348 73.2966216,173.540622 C57.0964272,162.31349 69.0776931,143.031385 98.1219765,142.069407 C104.18835,158.395085 109.610932,172.98519 115.669117,189.25496 C79.8941989,199.154283 34.1860688,190.618624 22.1802385,166.69192 C20.6603189,165.350133 20.5006505,163.906254 20.4842743,162.354813 C12.4056709,133.041517 50.9358908,118.228387 83.2758923,102.15551 Z" id="Shape"></path>
        </g>
    </g>
</svg>